<?xml version="1.0" encoding="UTF-8" standalone="no"?>
<!-- Created with Inkscape (http://www.inkscape.org/) -->

<svg
   width="300"
   height="300"
   viewBox="0 0 79.375 79.374999"
   version="1.1"
   id="svg1"
   inkscape:version="1.3.2 (091e20e, 2023-11-25, custom)"
   sodipodi:docname="icon_new.svg"
   xmlns:inkscape="http://www.inkscape.org/namespaces/inkscape"
   xmlns:sodipodi="http://sodipodi.sourceforge.net/DTD/sodipodi-0.dtd"
   xmlns="http://www.w3.org/2000/svg"
   xmlns:svg="http://www.w3.org/2000/svg">
  <sodipodi:namedview
     id="namedview1"
     pagecolor="#505050"
     bordercolor="#eeeeee"
     borderopacity="1"
     inkscape:showpageshadow="0"
     inkscape:pageopacity="0"
     inkscape:pagecheckerboard="0"
     inkscape:deskcolor="#505050"
     inkscape:document-units="mm"
     inkscape:zoom="2"
     inkscape:cx="110.25"
     inkscape:cy="115.75"
     inkscape:window-width="1920"
     inkscape:window-height="1001"
     inkscape:window-x="-9"
     inkscape:window-y="-9"
     inkscape:window-maximized="1"
     inkscape:current-layer="Layer_1-2" />
  <defs
     id="defs1" />
  <g
     inkscape:label="Слой 1"
     inkscape:groupmode="layer"
     id="layer1">
    <g
       id="Layer_1-2"
       data-name="Layer 1"
       transform="matrix(0.52461996,0,0,0.52461996,9.8182626,2.5999991e-8)">
      <path
         d="M 26.769562,-4.9559668e-8 -4.9031475e-4,22.459579 V 103.52033 L 56.930075,151.29015 l 0.0099,0.01 56.930565,-47.77967 V 22.459579 L 87.100437,-4.9559668e-8 Z M 19.116895,32.022212 h 12.985598 v 2.840815 H 27.108411 V 53.998143 H 24.110977 V 34.863027 h -4.994082 z m 16.387878,0 h 8.803178 l 2.965914,21.975931 H 44.182853 L 43.277614,47.130541 H 36.50359 l -0.905239,6.867602 h -3.090027 z m 14.827597,0 h 3.496843 L 60.91549,48.847441 V 32.022212 h 2.83983 v 21.975931 h -3.495857 l -7.086277,-16.82523 v 16.82523 H 50.33237 Z m 17.731454,0 h 3.02797 v 9.45822 h 3.870168 l 3.683997,-9.45822 h 3.183604 l -4.120364,10.675712 4.120364,11.300219 h -3.308702 l -3.558899,-9.676896 h -3.870168 v 9.676896 h -3.02797 z m 16.200724,0 h 10.488557 v 2.840815 h -3.746054 v 16.2943 h 3.746054 v 2.840816 H 84.264548 v -2.840816 h 3.746054 v -16.2943 h -3.746054 z m -46.168171,2.840815 -1.217492,9.426699 h 6.024419 L 41.685812,34.863027 Z M 26.917316,56.906924 h 7.315789 c 2.618039,0 4.572772,0.699427 5.86386,2.098106 1.291088,1.362815 1.936561,3.246266 1.936561,5.649124 v 4.303579 h -5.217683 v -3.873122 c 0,-2.187678 -1.094429,-3.282107 -3.282107,-3.282107 h -5.917051 c -2.187678,0 -3.282107,1.094429 -3.282107,3.282107 v 22.378806 c 0,2.187678 1.094429,3.281122 3.282107,3.281122 h 5.917051 c 2.187678,0 3.282107,-1.093444 3.282107,-3.281122 v -7.800421 h -6.455861 v -4.841403 h 11.673544 v 13.072281 c 0,2.402857 -0.645473,4.303638 -1.936561,5.702315 -1.291088,1.362816 -3.245821,2.04393 -5.86386,2.04393 h -7.315789 c -2.618039,0 -4.572772,-0.681114 -5.86386,-2.04393 -1.291088,-1.398677 -1.936561,-3.299458 -1.936561,-5.702315 v -23.23972 c 0,-2.402858 0.645473,-4.286309 1.936561,-5.649124 1.291088,-1.398679 3.245821,-2.098106 5.86386,-2.098106 z m 18.639648,0.430457 h 14.73993 c 2.618039,0 4.572772,0.699427 5.86386,2.098105 1.291088,1.362815 1.936561,3.246266 1.936561,5.649125 v 22.378806 c 0,2.402859 -0.645473,4.303637 -1.936561,5.702316 -1.291088,1.362815 -3.245821,2.043929 -5.86386,2.043929 h -14.73993 z m 26.063789,0 h 6.025405 L 89.857525,86.333592 V 57.337381 h 4.89558 V 95.209662 H 88.728686 L 76.516333,66.213451 v 28.996211 h -4.89558 z M 50.775632,62.23296 v 28.081123 h 8.821893 c 2.187678,0 3.282107,-1.093446 3.282107,-3.281122 V 65.515067 c 0,-2.187676 -1.094429,-3.282107 -3.282107,-3.282107 z"
         style="fill:#ff5000;fill-rule:evenodd"
         id="path7" />
    </g>
  </g>
</svg>
